<mxfile host="app.diagrams.net" modified="2021-06-18T12:30:04.553Z" agent="5.0 (Windows NT 10.0; Win64; x64) AppleWebKit/537.36 (KHTML, like Gecko) Chrome/91.0.4472.101 Safari/537.36" etag="V9V436B7n2QmU3Y75hHo" version="14.1.3" type="github">
  <diagram id="C5RBs43oDa-KdzZeNtuy" name="Page-1">
    <mxGraphModel dx="1662" dy="737" grid="1" gridSize="10" guides="1" tooltips="1" connect="1" arrows="1" fold="1" page="1" pageScale="1" pageWidth="827" pageHeight="1169" math="0" shadow="0">
      <root>
        <mxCell id="WIyWlLk6GJQsqaUBKTNV-0" />
        <mxCell id="WIyWlLk6GJQsqaUBKTNV-1" parent="WIyWlLk6GJQsqaUBKTNV-0" />
        <mxCell id="YTHKiw0DMTDyvDD7WitL-22" value="" style="edgeStyle=orthogonalEdgeStyle;rounded=0;orthogonalLoop=1;jettySize=auto;html=1;fontSize=30;" edge="1" parent="WIyWlLk6GJQsqaUBKTNV-1" source="YTHKiw0DMTDyvDD7WitL-0" target="YTHKiw0DMTDyvDD7WitL-21">
          <mxGeometry relative="1" as="geometry" />
        </mxCell>
        <mxCell id="YTHKiw0DMTDyvDD7WitL-0" value="" style="rounded=1;whiteSpace=wrap;html=1;arcSize=27;" vertex="1" parent="WIyWlLk6GJQsqaUBKTNV-1">
          <mxGeometry x="290" y="100" width="320" height="90" as="geometry" />
        </mxCell>
        <mxCell id="YTHKiw0DMTDyvDD7WitL-6" value="Start" style="text;html=1;strokeColor=none;fillColor=none;align=center;verticalAlign=middle;whiteSpace=wrap;rounded=0;fontSize=30;" vertex="1" parent="WIyWlLk6GJQsqaUBKTNV-1">
          <mxGeometry x="400" y="115.5" width="118" height="59" as="geometry" />
        </mxCell>
        <mxCell id="YTHKiw0DMTDyvDD7WitL-24" value="" style="edgeStyle=orthogonalEdgeStyle;rounded=0;orthogonalLoop=1;jettySize=auto;html=1;fontSize=14;" edge="1" parent="WIyWlLk6GJQsqaUBKTNV-1" source="YTHKiw0DMTDyvDD7WitL-21" target="YTHKiw0DMTDyvDD7WitL-23">
          <mxGeometry relative="1" as="geometry" />
        </mxCell>
        <mxCell id="YTHKiw0DMTDyvDD7WitL-26" value="" style="edgeStyle=orthogonalEdgeStyle;rounded=0;orthogonalLoop=1;jettySize=auto;html=1;fontSize=14;" edge="1" parent="WIyWlLk6GJQsqaUBKTNV-1" source="YTHKiw0DMTDyvDD7WitL-21" target="YTHKiw0DMTDyvDD7WitL-25">
          <mxGeometry relative="1" as="geometry" />
        </mxCell>
        <mxCell id="YTHKiw0DMTDyvDD7WitL-21" value="" style="rhombus;whiteSpace=wrap;html=1;rounded=1;arcSize=27;" vertex="1" parent="WIyWlLk6GJQsqaUBKTNV-1">
          <mxGeometry x="326" y="290" width="248" height="190" as="geometry" />
        </mxCell>
        <mxCell id="YTHKiw0DMTDyvDD7WitL-23" value="" style="whiteSpace=wrap;html=1;rounded=1;arcSize=27;fontSize=14;" vertex="1" parent="WIyWlLk6GJQsqaUBKTNV-1">
          <mxGeometry x="120" y="550" width="200" height="60" as="geometry" />
        </mxCell>
        <mxCell id="YTHKiw0DMTDyvDD7WitL-40" value="" style="edgeStyle=orthogonalEdgeStyle;rounded=0;orthogonalLoop=1;jettySize=auto;html=1;fontSize=14;" edge="1" parent="WIyWlLk6GJQsqaUBKTNV-1" source="YTHKiw0DMTDyvDD7WitL-25" target="YTHKiw0DMTDyvDD7WitL-39">
          <mxGeometry relative="1" as="geometry" />
        </mxCell>
        <mxCell id="YTHKiw0DMTDyvDD7WitL-25" value="" style="whiteSpace=wrap;html=1;rounded=1;arcSize=27;fontSize=14;" vertex="1" parent="WIyWlLk6GJQsqaUBKTNV-1">
          <mxGeometry x="590" y="550" width="190" height="60" as="geometry" />
        </mxCell>
        <mxCell id="YTHKiw0DMTDyvDD7WitL-27" value="Height&amp;gt;120c" style="text;html=1;strokeColor=none;fillColor=none;align=center;verticalAlign=middle;whiteSpace=wrap;rounded=0;fontSize=14;fontStyle=1" vertex="1" parent="WIyWlLk6GJQsqaUBKTNV-1">
          <mxGeometry x="390" y="370" width="120" height="30" as="geometry" />
        </mxCell>
        <mxCell id="YTHKiw0DMTDyvDD7WitL-28" value="Yes" style="text;html=1;strokeColor=none;fillColor=none;align=center;verticalAlign=middle;whiteSpace=wrap;rounded=0;fontSize=14;" vertex="1" parent="WIyWlLk6GJQsqaUBKTNV-1">
          <mxGeometry x="610" y="358" width="40" height="20" as="geometry" />
        </mxCell>
        <mxCell id="YTHKiw0DMTDyvDD7WitL-29" value="No" style="text;html=1;strokeColor=none;fillColor=none;align=center;verticalAlign=middle;whiteSpace=wrap;rounded=0;fontSize=14;" vertex="1" parent="WIyWlLk6GJQsqaUBKTNV-1">
          <mxGeometry x="270" y="358" width="40" height="20" as="geometry" />
        </mxCell>
        <mxCell id="YTHKiw0DMTDyvDD7WitL-30" value="Can&#39;t ride" style="text;html=1;strokeColor=none;fillColor=none;align=center;verticalAlign=middle;whiteSpace=wrap;rounded=0;fontSize=14;" vertex="1" parent="WIyWlLk6GJQsqaUBKTNV-1">
          <mxGeometry x="140" y="575" width="150" height="20" as="geometry" />
        </mxCell>
        <mxCell id="YTHKiw0DMTDyvDD7WitL-32" value="Can ride" style="text;html=1;strokeColor=none;fillColor=none;align=center;verticalAlign=middle;whiteSpace=wrap;rounded=0;fontSize=14;" vertex="1" parent="WIyWlLk6GJQsqaUBKTNV-1">
          <mxGeometry x="620" y="570" width="150" height="20" as="geometry" />
        </mxCell>
        <mxCell id="YTHKiw0DMTDyvDD7WitL-51" value="" style="edgeStyle=orthogonalEdgeStyle;rounded=0;orthogonalLoop=1;jettySize=auto;html=1;fontSize=14;" edge="1" parent="WIyWlLk6GJQsqaUBKTNV-1" source="YTHKiw0DMTDyvDD7WitL-39" target="YTHKiw0DMTDyvDD7WitL-50">
          <mxGeometry relative="1" as="geometry" />
        </mxCell>
        <mxCell id="YTHKiw0DMTDyvDD7WitL-53" value="" style="edgeStyle=orthogonalEdgeStyle;rounded=0;orthogonalLoop=1;jettySize=auto;html=1;fontSize=14;" edge="1" parent="WIyWlLk6GJQsqaUBKTNV-1" source="YTHKiw0DMTDyvDD7WitL-39" target="YTHKiw0DMTDyvDD7WitL-52">
          <mxGeometry relative="1" as="geometry" />
        </mxCell>
        <mxCell id="YTHKiw0DMTDyvDD7WitL-55" value="" style="edgeStyle=orthogonalEdgeStyle;rounded=0;orthogonalLoop=1;jettySize=auto;html=1;fontSize=14;" edge="1" parent="WIyWlLk6GJQsqaUBKTNV-1" source="YTHKiw0DMTDyvDD7WitL-39" target="YTHKiw0DMTDyvDD7WitL-54">
          <mxGeometry relative="1" as="geometry" />
        </mxCell>
        <mxCell id="YTHKiw0DMTDyvDD7WitL-39" value="Age" style="rhombus;whiteSpace=wrap;html=1;rounded=1;arcSize=27;fontSize=14;fontStyle=1" vertex="1" parent="WIyWlLk6GJQsqaUBKTNV-1">
          <mxGeometry x="637.5" y="680" width="95" height="80" as="geometry" />
        </mxCell>
        <mxCell id="YTHKiw0DMTDyvDD7WitL-50" value="$5" style="whiteSpace=wrap;html=1;rounded=1;fontSize=14;fontStyle=1;arcSize=27;" vertex="1" parent="WIyWlLk6GJQsqaUBKTNV-1">
          <mxGeometry x="430" y="780" width="120" height="60" as="geometry" />
        </mxCell>
        <mxCell id="YTHKiw0DMTDyvDD7WitL-52" value="$7" style="whiteSpace=wrap;html=1;rounded=1;fontSize=14;fontStyle=1;arcSize=27;" vertex="1" parent="WIyWlLk6GJQsqaUBKTNV-1">
          <mxGeometry x="625" y="780" width="120" height="60" as="geometry" />
        </mxCell>
        <mxCell id="YTHKiw0DMTDyvDD7WitL-54" value="$12" style="whiteSpace=wrap;html=1;rounded=1;fontSize=14;fontStyle=1;arcSize=27;" vertex="1" parent="WIyWlLk6GJQsqaUBKTNV-1">
          <mxGeometry x="800" y="780" width="120" height="60" as="geometry" />
        </mxCell>
        <mxCell id="YTHKiw0DMTDyvDD7WitL-56" value="Under 12" style="text;html=1;align=center;verticalAlign=middle;resizable=0;points=[];autosize=1;fontSize=14;" vertex="1" parent="WIyWlLk6GJQsqaUBKTNV-1">
          <mxGeometry x="525" y="680" width="70" height="20" as="geometry" />
        </mxCell>
        <mxCell id="YTHKiw0DMTDyvDD7WitL-57" value="Over 18" style="text;html=1;align=center;verticalAlign=middle;resizable=0;points=[];autosize=1;fontSize=14;" vertex="1" parent="WIyWlLk6GJQsqaUBKTNV-1">
          <mxGeometry x="765" y="690" width="70" height="20" as="geometry" />
        </mxCell>
        <mxCell id="YTHKiw0DMTDyvDD7WitL-58" value="12-18" style="text;html=1;align=center;verticalAlign=middle;resizable=0;points=[];autosize=1;fontSize=14;" vertex="1" parent="WIyWlLk6GJQsqaUBKTNV-1">
          <mxGeometry x="685" y="750" width="50" height="20" as="geometry" />
        </mxCell>
        <mxCell id="YTHKiw0DMTDyvDD7WitL-61" value="" style="edgeStyle=orthogonalEdgeStyle;rounded=0;orthogonalLoop=1;jettySize=auto;html=1;fontSize=14;" edge="1" parent="WIyWlLk6GJQsqaUBKTNV-1" source="YTHKiw0DMTDyvDD7WitL-59" target="YTHKiw0DMTDyvDD7WitL-60">
          <mxGeometry relative="1" as="geometry" />
        </mxCell>
        <mxCell id="YTHKiw0DMTDyvDD7WitL-59" value="Start" style="rhombus;whiteSpace=wrap;html=1;fontSize=14;" vertex="1" parent="WIyWlLk6GJQsqaUBKTNV-1">
          <mxGeometry x="430" y="990" width="130" height="90" as="geometry" />
        </mxCell>
        <mxCell id="YTHKiw0DMTDyvDD7WitL-63" value="" style="edgeStyle=orthogonalEdgeStyle;rounded=0;orthogonalLoop=1;jettySize=auto;html=1;fontSize=14;" edge="1" parent="WIyWlLk6GJQsqaUBKTNV-1" source="YTHKiw0DMTDyvDD7WitL-60" target="YTHKiw0DMTDyvDD7WitL-62">
          <mxGeometry relative="1" as="geometry" />
        </mxCell>
        <mxCell id="YTHKiw0DMTDyvDD7WitL-66" value="" style="edgeStyle=orthogonalEdgeStyle;rounded=0;orthogonalLoop=1;jettySize=auto;html=1;fontSize=14;" edge="1" parent="WIyWlLk6GJQsqaUBKTNV-1" source="YTHKiw0DMTDyvDD7WitL-60" target="YTHKiw0DMTDyvDD7WitL-65">
          <mxGeometry relative="1" as="geometry" />
        </mxCell>
        <mxCell id="YTHKiw0DMTDyvDD7WitL-60" value="Is it cleanly divisible by 4?" style="rhombus;whiteSpace=wrap;html=1;fontSize=14;" vertex="1" parent="WIyWlLk6GJQsqaUBKTNV-1">
          <mxGeometry x="400" y="1120" width="190" height="100" as="geometry" />
        </mxCell>
        <mxCell id="YTHKiw0DMTDyvDD7WitL-62" value="Not Leap" style="whiteSpace=wrap;html=1;fontSize=14;" vertex="1" parent="WIyWlLk6GJQsqaUBKTNV-1">
          <mxGeometry x="220" y="1250" width="120" height="60" as="geometry" />
        </mxCell>
        <mxCell id="YTHKiw0DMTDyvDD7WitL-64" value="No" style="text;html=1;align=center;verticalAlign=middle;resizable=0;points=[];autosize=1;fontSize=14;" vertex="1" parent="WIyWlLk6GJQsqaUBKTNV-1">
          <mxGeometry x="315" y="1130" width="30" height="20" as="geometry" />
        </mxCell>
        <mxCell id="YTHKiw0DMTDyvDD7WitL-69" value="" style="edgeStyle=orthogonalEdgeStyle;rounded=0;orthogonalLoop=1;jettySize=auto;html=1;fontSize=14;" edge="1" parent="WIyWlLk6GJQsqaUBKTNV-1" source="YTHKiw0DMTDyvDD7WitL-65" target="YTHKiw0DMTDyvDD7WitL-68">
          <mxGeometry relative="1" as="geometry" />
        </mxCell>
        <mxCell id="YTHKiw0DMTDyvDD7WitL-72" value="" style="edgeStyle=orthogonalEdgeStyle;rounded=0;orthogonalLoop=1;jettySize=auto;html=1;fontSize=14;" edge="1" parent="WIyWlLk6GJQsqaUBKTNV-1" source="YTHKiw0DMTDyvDD7WitL-65" target="YTHKiw0DMTDyvDD7WitL-71">
          <mxGeometry relative="1" as="geometry" />
        </mxCell>
        <mxCell id="YTHKiw0DMTDyvDD7WitL-65" value="Is it cleanly divisible by 100?" style="whiteSpace=wrap;html=1;fontSize=14;" vertex="1" parent="WIyWlLk6GJQsqaUBKTNV-1">
          <mxGeometry x="680" y="1240" width="120" height="60" as="geometry" />
        </mxCell>
        <mxCell id="YTHKiw0DMTDyvDD7WitL-67" value="Yes" style="text;html=1;align=center;verticalAlign=middle;resizable=0;points=[];autosize=1;fontSize=14;" vertex="1" parent="WIyWlLk6GJQsqaUBKTNV-1">
          <mxGeometry x="640" y="1140" width="40" height="20" as="geometry" />
        </mxCell>
        <mxCell id="YTHKiw0DMTDyvDD7WitL-68" value="Leap" style="whiteSpace=wrap;html=1;fontSize=14;" vertex="1" parent="WIyWlLk6GJQsqaUBKTNV-1">
          <mxGeometry x="520" y="1320" width="120" height="60" as="geometry" />
        </mxCell>
        <mxCell id="YTHKiw0DMTDyvDD7WitL-70" value="No" style="text;html=1;align=center;verticalAlign=middle;resizable=0;points=[];autosize=1;fontSize=14;" vertex="1" parent="WIyWlLk6GJQsqaUBKTNV-1">
          <mxGeometry x="595" y="1240" width="30" height="20" as="geometry" />
        </mxCell>
        <mxCell id="YTHKiw0DMTDyvDD7WitL-75" value="" style="edgeStyle=orthogonalEdgeStyle;rounded=0;orthogonalLoop=1;jettySize=auto;html=1;fontSize=14;" edge="1" parent="WIyWlLk6GJQsqaUBKTNV-1" source="YTHKiw0DMTDyvDD7WitL-71" target="YTHKiw0DMTDyvDD7WitL-74">
          <mxGeometry relative="1" as="geometry" />
        </mxCell>
        <mxCell id="YTHKiw0DMTDyvDD7WitL-78" value="" style="edgeStyle=orthogonalEdgeStyle;rounded=0;orthogonalLoop=1;jettySize=auto;html=1;fontSize=14;" edge="1" parent="WIyWlLk6GJQsqaUBKTNV-1" source="YTHKiw0DMTDyvDD7WitL-71" target="YTHKiw0DMTDyvDD7WitL-77">
          <mxGeometry relative="1" as="geometry" />
        </mxCell>
        <mxCell id="YTHKiw0DMTDyvDD7WitL-71" value="&lt;span&gt;Is it cleanly divisible by 400?&lt;/span&gt;" style="whiteSpace=wrap;html=1;fontSize=14;" vertex="1" parent="WIyWlLk6GJQsqaUBKTNV-1">
          <mxGeometry x="860" y="1320" width="120" height="60" as="geometry" />
        </mxCell>
        <mxCell id="YTHKiw0DMTDyvDD7WitL-73" value="Yes" style="text;html=1;align=center;verticalAlign=middle;resizable=0;points=[];autosize=1;fontSize=14;" vertex="1" parent="WIyWlLk6GJQsqaUBKTNV-1">
          <mxGeometry x="830" y="1230" width="40" height="20" as="geometry" />
        </mxCell>
        <mxCell id="YTHKiw0DMTDyvDD7WitL-74" value="&lt;span&gt;Not Leap&lt;/span&gt;" style="whiteSpace=wrap;html=1;fontSize=14;" vertex="1" parent="WIyWlLk6GJQsqaUBKTNV-1">
          <mxGeometry x="710" y="1400" width="120" height="60" as="geometry" />
        </mxCell>
        <mxCell id="YTHKiw0DMTDyvDD7WitL-76" value="No" style="text;html=1;align=center;verticalAlign=middle;resizable=0;points=[];autosize=1;fontSize=14;" vertex="1" parent="WIyWlLk6GJQsqaUBKTNV-1">
          <mxGeometry x="785" y="1330" width="30" height="20" as="geometry" />
        </mxCell>
        <mxCell id="YTHKiw0DMTDyvDD7WitL-77" value="&lt;span&gt;Leap&lt;/span&gt;" style="whiteSpace=wrap;html=1;fontSize=14;" vertex="1" parent="WIyWlLk6GJQsqaUBKTNV-1">
          <mxGeometry x="1010" y="1400" width="120" height="60" as="geometry" />
        </mxCell>
        <mxCell id="YTHKiw0DMTDyvDD7WitL-79" value="Yes" style="text;html=1;align=center;verticalAlign=middle;resizable=0;points=[];autosize=1;fontSize=14;" vertex="1" parent="WIyWlLk6GJQsqaUBKTNV-1">
          <mxGeometry x="1010" y="1320" width="40" height="20" as="geometry" />
        </mxCell>
        <mxCell id="YTHKiw0DMTDyvDD7WitL-80" value="year = 2021&lt;br&gt;if year /4:&lt;br&gt;&amp;nbsp; &amp;nbsp; &amp;nbsp; &amp;nbsp; &amp;nbsp; &amp;nbsp; &amp;nbsp;if year /100&lt;br&gt;&amp;nbsp; &amp;nbsp; &amp;nbsp; &amp;nbsp; &amp;nbsp; &amp;nbsp; &amp;nbsp; &amp;nbsp; &amp;nbsp; &amp;nbsp; &amp;nbsp; &amp;nbsp;if year / 400&lt;br&gt;&amp;nbsp; &amp;nbsp; &amp;nbsp; &amp;nbsp; &amp;nbsp; &amp;nbsp; &amp;nbsp; &amp;nbsp; &amp;nbsp; &amp;nbsp; &amp;nbsp; &amp;nbsp; &amp;nbsp; &amp;nbsp; &amp;nbsp; &amp;nbsp; print(&quot;Leap&quot;)&lt;br&gt;&lt;br&gt;&lt;br&gt;else :&lt;br&gt;&amp;nbsp; &amp;nbsp; &amp;nbsp; &amp;nbsp; &amp;nbsp; &amp;nbsp; &amp;nbsp; &amp;nbsp; &amp;nbsp; &amp;nbsp; &amp;nbsp; &amp;nbsp; &amp;nbsp; &amp;nbsp; print (Not leap)&amp;nbsp;" style="text;html=1;align=center;verticalAlign=middle;resizable=0;points=[];autosize=1;fontSize=14;" vertex="1" parent="WIyWlLk6GJQsqaUBKTNV-1">
          <mxGeometry x="1100" y="1060" width="220" height="160" as="geometry" />
        </mxCell>
      </root>
    </mxGraphModel>
  </diagram>
</mxfile>
